# xmcd
#
# Track frame offsets:
#	150
#	24302
#	61225
#	79641
#	120101
#	142176
#	155385
#	176546
#	206843
#
# Disc length: 3512 seconds
#
# Revision: 1
# Processed by: cddbd v1.5.1PL0 Copyright (c) Steve Scherf et al.
# Submitted via: CDmax 2.0
#
DISCID=6d0db609
DTITLE=Jack and Jorma, The Original Acoustic Hot Tuna - Rams Head Tavern, Annap
DTITLE=olis, MD 11-28-00 - d2
DYEAR=2000
DGENRE=Blues
TTITLE0=Watch The North Wind Rise
TTITLE1=99 Year Blues
TTITLE2=I Am The Light Of This World
TTITLE3=Another Man Done Gone -> Parchman Farm
TTITLE4=How Long Blues
TTITLE5=A Life Well Lived
TTITLE6=Nine Pound Hammer
TTITLE7=Hesitation Blues
TTITLE8=I Just Want To Make Love To You
EXTD=11-28-00 \nRams Head Tavern, Annapolis, MD \nBilled as "Jack and Jorma, Th
EXTD=e Original Acoustic Hot Tuna" \nOpening act: Geoff Achison \n*w/Geoff Ac
EXTD=hison\n\nTrue Religion\nTrouble In Mind\nThe Terrible Operation\nUncle S
EXTD=am Blues\nDeath Don't Have No Mercy\nDo Not Go Gentle\nI See The Light\n
EXTD=Living In The Moment\nEmbryonic Journey\nGood Shepherd\nWatch The Nort
EXTD=h Wind Rise\n99 Year Blues\nI Am The Light Of This World\nAnother Man Do
EXTD=ne Gone ->\nParchman Farm\nHow Long Blues\nA Life Well Lived\nNine Poun
EXTD=d Hammer\nHesitation Blues\n\nEncore:* \nI Just Want To Make Love To You
EXTT0=
EXTT1=
EXTT2=
EXTT3=
EXTT4=
EXTT5=
EXTT6=
EXTT7=
EXTT8=
PLAYORDER=
